<?xml version="1.0" encoding="utf-8"?>
<!-- Generator: Adobe Illustrator 24.1.2, SVG Export Plug-In . SVG Version: 6.00 Build 0)  -->
<svg version="1.1" id="Ebene_1" xmlns="http://www.w3.org/2000/svg" xmlns:xlink="http://www.w3.org/1999/xlink" x="0px" y="0px"
	 viewBox="0 0 17.6 17.8" style="enable-background:new 0 0 17.6 17.8;" xml:space="preserve">
<style type="text/css">
	.st0{clip-path:url(#SVGID_2_);enable-background:new    ;}
	.st1{clip-path:url(#SVGID_4_);}
	.st2{clip-path:url(#SVGID_6_);}
	.st3{clip-path:url(#SVGID_8_);fill:#FFFFFF;}
</style>
<g>
	<defs>
		<path id="SVGID_1_" d="M8.8,0c0.6,0,1,0.4,1,1v9.6l2.3-2.3c0.4-0.4,1-0.4,1.4,0c0.4,0.4,0.4,1,0,1.4l-4,4
			c-0.1,0.1-0.2,0.2-0.3,0.2C9.1,14,8.9,14,8.8,14s-0.3,0-0.4-0.1c-0.1-0.1-0.2-0.1-0.3-0.2l-4-4c-0.4-0.4-0.4-1,0-1.4
			c0.4-0.4,1-0.4,1.4,0l2.3,2.3V1C7.8,0.4,8.2,0,8.8,0z M16.8,13.2c0.4,0,0.8,0.4,0.8,0.8v3c0,0.4-0.4,0.8-0.8,0.8h-16
			C0.4,17.8,0,17.4,0,17v-3c0-0.4,0.4-0.8,0.8-0.8s0.8,0.4,0.8,0.8v2.2H16V14C16,13.6,16.4,13.2,16.8,13.2z"/>
	</defs>
	<use xlink:href="#SVGID_1_"  style="overflow:visible;fill-rule:evenodd;clip-rule:evenodd;fill:#FFFFFF;"/>
	<clipPath id="SVGID_2_">
		<use xlink:href="#SVGID_1_"  style="overflow:visible;"/>
	</clipPath>
	<g class="st0">
		<g>
			<defs>
				<rect id="SVGID_3_" x="-4.2" y="-3" width="25" height="25"/>
			</defs>
			<use xlink:href="#SVGID_3_"  style="overflow:visible;fill:#FFFFFF;"/>
			<clipPath id="SVGID_4_">
				<use xlink:href="#SVGID_3_"  style="overflow:visible;"/>
			</clipPath>
			<g class="st1">
				<defs>
					<rect id="SVGID_5_" x="-3.2" y="-3" width="24" height="24"/>
				</defs>
				<use xlink:href="#SVGID_5_"  style="overflow:visible;fill-rule:evenodd;clip-rule:evenodd;fill:#FFFFFF;"/>
				<clipPath id="SVGID_6_">
					<use xlink:href="#SVGID_5_"  style="overflow:visible;"/>
				</clipPath>
				<g class="st2">
					<defs>
						<rect id="SVGID_7_" x="-0.2" y="0" width="18" height="18"/>
					</defs>
					<use xlink:href="#SVGID_7_"  style="overflow:visible;fill:#FFFFFF;"/>
					<clipPath id="SVGID_8_">
						<use xlink:href="#SVGID_7_"  style="overflow:visible;"/>
					</clipPath>
					<rect x="-8.2" y="-8" class="st3" width="34" height="34"/>
				</g>
			</g>
		</g>
	</g>
</g>
</svg>
