<?xml version="1.0" encoding="utf-8"?>
<!-- Generator: Adobe Illustrator 24.1.2, SVG Export Plug-In . SVG Version: 6.00 Build 0)  -->
<svg version="1.1" id="Ebene_1" xmlns="http://www.w3.org/2000/svg" xmlns:xlink="http://www.w3.org/1999/xlink" x="0px" y="0px"
	 viewBox="0 0 18 18" style="enable-background:new 0 0 18 18;" xml:space="preserve">
<style type="text/css">
	.st0{clip-path:url(#SVGID_2_);enable-background:new    ;}
	.st1{clip-path:url(#SVGID_4_);}
	.st2{clip-path:url(#SVGID_6_);fill:#006192;}
</style>
<g>
	<defs>
		<path id="SVGID_1_" d="M17.9,14.9c0.1-0.5,0-0.8-0.2-1c-1.1-1.1-3.1-2.4-4.5-2.7c-0.7-0.1-1.2,0.3-1.5,0.7
			c-0.2,0.2-0.8,0.7-0.9,0.7c-0.8,0.1-5.7-4.9-5.7-5.7C5.3,7,5.8,6.4,6,6.2c0.4-0.4,0.8-0.8,0.7-1.5C6.4,3.3,5.1,1.3,4,0.2
			C3.9,0.1,3.6-0.1,3.1,0C2,0.3,0.3,1.7,0.1,2.5c-0.6,1.9,1.6,6.2,5.4,10c4,4,8.1,6,10,5.4C16.3,17.7,17.7,16,17.9,14.9"/>
	</defs>
	<clipPath id="SVGID_2_">
		<use xlink:href="#SVGID_1_"  style="overflow:visible;"/>
	</clipPath>
	<g class="st0">
		<g>
			<defs>
				<rect id="SVGID_3_" x="-3" y="-3" width="24" height="24"/>
			</defs>
			<clipPath id="SVGID_4_">
				<use xlink:href="#SVGID_3_"  style="overflow:visible;"/>
			</clipPath>
			<g class="st1">
				<defs>
					<rect id="SVGID_5_" x="0" y="0" width="18" height="18"/>
				</defs>
				<clipPath id="SVGID_6_">
					<use xlink:href="#SVGID_5_"  style="overflow:visible;"/>
				</clipPath>
				<rect x="-8" y="-8" class="st2" width="34" height="34"/>
			</g>
		</g>
	</g>
</g>
</svg>
