<svg width="18" height="18" xmlns="http://www.w3.org/2000/svg" xmlns:xlink="http://www.w3.org/1999/xlink"><defs><path d="M20.95 17.92c.13-.52-.02-.808-.168-.956-1.09-1.09-3.055-2.384-4.453-2.66-.69-.138-1.182.345-1.539.694-.173.17-.765.736-.882.748-.784.088-5.744-4.873-5.657-5.655.012-.117.58-.71.748-.882.351-.358.833-.85.695-1.54-.276-1.398-1.569-3.361-2.66-4.452-.149-.15-.436-.3-.956-.17-1.068.27-2.743 1.64-2.986 2.445C2.512 7.41 4.74 11.7 8.517 15.48c4.026 4.026 8.071 6.006 9.99 5.427.805-.244 2.174-1.92 2.443-2.986" id="a"/></defs><g transform="translate(-3 -3)" fill="none" fill-rule="evenodd"><mask id="b" fill="#fff"><use xlink:href="#a"/></mask><use fill="#FFF" xlink:href="#a"/><g mask="url(#b)" fill="#006192"><path d="M0 0h24v24H0z"/></g></g></svg>